<?xml version="1.0" encoding="UTF-8"?>
<svg xmlns="http://www.w3.org/2000/svg" width="512" height="512" viewBox="0 0 512 512" role="img" aria-labelledby="title desc">
  <title id="title">모두일보 다크모드 파비콘</title>
  <desc id="desc">한글 모두 두 글자의 흰색 단색 파비콘</desc>
  <g id="modoo-favicon"><path d="M935 54C929 64 841 80 811 80C791 80 762 58 715 58H536C540 88 545 130 545 146L547 273H754C758 287 763 326 761 328C758 331 738 343 728 349L742 383L768 635C770 658 757 685 736 687C727 688 685 693 660 693C651 693 628 679 591 679H313C287 679 209 684 185 684C180 684 167 659 158 637C167 630 201 599 202 578L219 331C222 285 232 255 247 230H286C295 239 309 264 311 273H433L434 130C434 111 437 82 440 58H273C203 58 68 68 48 68C38 68 31 32 30 22C80 -8 148 -34 168 -34C178 -34 243 -17 273 -17H930C938 -6 946 35 935 54ZM317 604H645L640 349H320Z" transform="matrix(0.21800000 0 0 -0.21800000 44.5400 315.0000)" fill="#ffffff"/>
<path d="M191 644C198 637 201 629 201 622L203 445C204 391 247 353 308 353L785 355C798 366 800 418 792 429C784 440 727 444 697 446C677 447 630 429 591 429H357C337 429 321 436 321 461V638H777C790 649 792 699 784 710C776 721 731 725 699 727C679 728 632 713 593 713H318C277 716 183 719 168 719C160 719 148 691 150 678C160 670 188 647 191 644ZM935 239C929 249 841 265 811 265C791 265 762 243 715 243H273C203 243 68 253 48 253C38 253 31 217 30 207C80 177 148 151 168 151C178 151 243 168 273 168H436V-44C436 -106 450 -168 460 -185H514C529 -166 549 -68 549 -18L551 168H930C938 179 946 220 935 239Z" transform="matrix(0.21800000 0 0 -0.21800000 256.0000 315.0000)" fill="#ffffff"/></g>
</svg>
