<?xml version="1.0" encoding="UTF-8"?>
<svg xmlns="http://www.w3.org/2000/svg" width="450" height="150" viewBox="0 0 450 150" role="img" aria-labelledby="title desc">
  <title id="title">모두일보 헤더 워드마크</title>
  <desc id="desc">모두일보, 상승 막대그래프 심볼, 영문 modoo ilbo를 결합한 검정 단색 워드마크</desc>
  <g transform="scale(0.5)">
<g id="modoo-ilbo-wordmark">
  <path d="M935 54C929 64 841 80 811 80C791 80 762 58 715 58H536C540 88 545 130 545 146L547 273H754C758 287 763 326 761 328C758 331 738 343 728 349L742 383L768 635C770 658 757 685 736 687C727 688 685 693 660 693C651 693 628 679 591 679H313C287 679 209 684 185 684C180 684 167 659 158 637C167 630 201 599 202 578L219 331C222 285 232 255 247 230H286C295 239 309 264 311 273H433L434 130C434 111 437 82 440 58H273C203 58 68 68 48 68C38 68 31 32 30 22C80 -8 148 -34 168 -34C178 -34 243 -17 273 -17H930C938 -6 946 35 935 54ZM317 604H645L640 349H320Z" transform="matrix(0.13500000 0 0 -0.13500000 30.0000 170.0000)" fill="#111111"/>
<path d="M191 644C198 637 201 629 201 622L203 445C204 391 247 353 308 353L785 355C798 366 800 418 792 429C784 440 727 444 697 446C677 447 630 429 591 429H357C337 429 321 436 321 461V638H777C790 649 792 699 784 710C776 721 731 725 699 727C679 728 632 713 593 713H318C277 716 183 719 168 719C160 719 148 691 150 678C160 670 188 647 191 644ZM935 239C929 249 841 265 811 265C791 265 762 243 715 243H273C203 243 68 253 48 253C38 253 31 217 30 207C80 177 148 151 168 151C178 151 243 168 273 168H436V-44C436 -106 450 -168 460 -185H514C529 -166 549 -68 549 -18L551 168H930C938 179 946 220 935 239Z" transform="matrix(0.13500000 0 0 -0.13500000 160.9500 170.0000)" fill="#111111"/>
<path d="M731 266H786C801 287 824 363 825 447L827 675C827 696 830 725 830 735C830 746 827 751 816 756C780 772 694 790 663 790C654 790 645 766 640 751L697 701C704 694 712 686 712 673V415C712 345 721 285 731 266ZM325 295C466 295 561 383 561 500C561 617 466 705 325 705C184 705 89 617 89 500C89 383 184 295 325 295ZM325 376C251 376 197 426 197 500C197 574 251 624 325 624C399 624 453 574 453 500C453 426 399 376 325 376ZM402 -180H854C873 -168 873 -114 862 -104C851 -94 792 -86 772 -86C762 -86 697 -106 677 -106H448C435 -106 420 -101 420 -80V-10H779C803 -10 814 9 814 21C814 39 798 52 783 55L795 81C802 118 811 181 811 195C811 212 799 220 782 224C768 227 731 233 720 233C709 233 664 221 648 221H437C395 221 286 226 275 226C266 226 258 192 258 184C266 178 340 139 365 139C375 139 407 149 437 149H690C690 126 689 78 686 60H385C367 60 298 65 282 65C276 65 266 44 266 36L297 11C304 4 305 0 305 -7V-91C305 -143 339 -180 402 -180Z" transform="matrix(0.13500000 0 0 -0.13500000 291.9000 170.0000)" fill="#111111"/>
<path d="M935 44C929 54 841 70 811 70C791 70 762 48 715 48H546C551 74 555 106 556 120L558 230H742C765 249 768 273 768 309L771 641C771 651 773 672 773 678C773 687 766 690 753 695C724 705 666 714 633 716C627 716 611 689 608 678C617 672 639 656 647 649C652 644 654 640 654 632V525H329V611C329 621 331 642 331 648C331 657 326 660 311 665C283 674 216 679 193 679C187 679 175 655 171 644C180 637 197 627 205 620C210 615 212 611 212 603L216 306C217 264 227 220 248 193H296C305 201 314 220 318 230H443L444 108C444 92 446 69 449 48H273C203 48 68 58 48 58C38 58 31 22 30 12C80 -18 148 -44 168 -44C178 -44 243 -27 273 -27H930C938 -16 946 25 935 44ZM329 455H654V302H329Z" transform="matrix(0.13500000 0 0 -0.13500000 422.8500 170.0000)" fill="#111111"/>
  <path d="M552 189 L614 189 L650 153 L835 153 L835 163 L654 163 L618 199 L552 199 Z" fill="#111111"/>
  <rect x="734" y="136" width="18" height="22" fill="#111111"/>
  <rect x="766" y="116" width="18" height="42" fill="#111111"/>
  <rect x="798" y="88" width="18" height="70" fill="#111111"/>
  <path d="M673 546Q764 546 809.0 499.5Q854 453 854 349V0H767V345Q767 408 740.5 440.0Q714 472 658 472Q580 472 546.5 427.0Q513 382 513 296V0H426V345Q426 387 414.0 415.5Q402 444 378.0 458.0Q354 472 316 472Q262 472 231.0 449.5Q200 427 186.5 384.0Q173 341 173 278V0H85V536H156L169 463H174Q191 491 215.5 509.5Q240 528 270.0 537.0Q300 546 332 546Q394 546 435.5 524.0Q477 502 496 456H501Q528 502 574.5 524.0Q621 546 673 546Z" transform="matrix(0.03600000 0 0 -0.03600000 597.0000 240.0000)" fill="#111111"/>
<path d="M551 269Q551 202 533.5 150.5Q516 99 483.5 63.0Q451 27 404.5 8.5Q358 -10 301 -10Q248 -10 203.0 8.5Q158 27 125.0 63.0Q92 99 73.5 150.5Q55 202 55 269Q55 358 85.0 419.5Q115 481 171.0 513.5Q227 546 304 546Q377 546 432.5 513.5Q488 481 519.5 419.5Q551 358 551 269ZM146 269Q146 206 162.5 159.5Q179 113 214.0 88.0Q249 63 303 63Q357 63 392.0 88.0Q427 113 443.5 159.5Q460 206 460 269Q460 333 443.0 378.0Q426 423 391.5 447.5Q357 472 302 472Q220 472 183.0 418.0Q146 364 146 269Z" transform="matrix(0.03600000 0 0 -0.03600000 630.6600 240.0000)" fill="#111111"/>
<path d="M275 -10Q175 -10 115.0 59.5Q55 129 55 267Q55 405 115.5 475.5Q176 546 276 546Q318 546 349.0 535.5Q380 525 403.0 507.0Q426 489 442 467H448Q447 480 444.5 505.5Q442 531 442 546V760H530V0H459L446 72H442Q426 49 403.0 30.5Q380 12 348.5 1.0Q317 -10 275 -10ZM289 63Q374 63 408.5 109.5Q443 156 443 250V266Q443 366 410.0 419.5Q377 473 288 473Q217 473 181.5 416.5Q146 360 146 265Q146 169 181.5 116.0Q217 63 289 63Z" transform="matrix(0.03600000 0 0 -0.03600000 652.4400 240.0000)" fill="#111111"/>
<path d="M551 269Q551 202 533.5 150.5Q516 99 483.5 63.0Q451 27 404.5 8.5Q358 -10 301 -10Q248 -10 203.0 8.5Q158 27 125.0 63.0Q92 99 73.5 150.5Q55 202 55 269Q55 358 85.0 419.5Q115 481 171.0 513.5Q227 546 304 546Q377 546 432.5 513.5Q488 481 519.5 419.5Q551 358 551 269ZM146 269Q146 206 162.5 159.5Q179 113 214.0 88.0Q249 63 303 63Q357 63 392.0 88.0Q427 113 443.5 159.5Q460 206 460 269Q460 333 443.0 378.0Q426 423 391.5 447.5Q357 472 302 472Q220 472 183.0 418.0Q146 364 146 269Z" transform="matrix(0.03600000 0 0 -0.03600000 674.5800 240.0000)" fill="#111111"/>
<path d="M551 269Q551 202 533.5 150.5Q516 99 483.5 63.0Q451 27 404.5 8.5Q358 -10 301 -10Q248 -10 203.0 8.5Q158 27 125.0 63.0Q92 99 73.5 150.5Q55 202 55 269Q55 358 85.0 419.5Q115 481 171.0 513.5Q227 546 304 546Q377 546 432.5 513.5Q488 481 519.5 419.5Q551 358 551 269ZM146 269Q146 206 162.5 159.5Q179 113 214.0 88.0Q249 63 303 63Q357 63 392.0 88.0Q427 113 443.5 159.5Q460 206 460 269Q460 333 443.0 378.0Q426 423 391.5 447.5Q357 472 302 472Q220 472 183.0 418.0Q146 364 146 269Z" transform="matrix(0.03600000 0 0 -0.03600000 696.3600 240.0000)" fill="#111111"/>
<path d="M173 536V0H85V536ZM130 737Q150 737 165.5 723.5Q181 710 181 681Q181 653 165.5 639.0Q150 625 130 625Q108 625 93.0 639.0Q78 653 78 681Q78 710 93.0 723.5Q108 737 130 737Z" transform="matrix(0.03600000 0 0 -0.03600000 727.5000 240.0000)" fill="#111111"/>
<path d="M173 0H85V760H173Z" transform="matrix(0.03600000 0 0 -0.03600000 736.7880 240.0000)" fill="#111111"/>
<path d="M173 575Q173 541 171.5 511.5Q170 482 168 465H173Q196 499 236.0 522.0Q276 545 339 545Q439 545 499.5 475.5Q560 406 560 268Q560 176 532.5 114.0Q505 52 455.0 21.0Q405 -10 339 -10Q276 -10 236.0 13.0Q196 36 173 68H166L148 0H85V760H173ZM324 472Q267 472 234.0 450.5Q201 429 187.0 384.5Q173 340 173 271V267Q173 168 205.5 115.5Q238 63 326 63Q398 63 433.5 116.0Q469 169 469 269Q469 370 433.5 421.0Q398 472 324 472Z" transform="matrix(0.03600000 0 0 -0.03600000 746.0760 240.0000)" fill="#111111"/>
<path d="M551 269Q551 202 533.5 150.5Q516 99 483.5 63.0Q451 27 404.5 8.5Q358 -10 301 -10Q248 -10 203.0 8.5Q158 27 125.0 63.0Q92 99 73.5 150.5Q55 202 55 269Q55 358 85.0 419.5Q115 481 171.0 513.5Q227 546 304 546Q377 546 432.5 513.5Q488 481 519.5 419.5Q551 358 551 269ZM146 269Q146 206 162.5 159.5Q179 113 214.0 88.0Q249 63 303 63Q357 63 392.0 88.0Q427 113 443.5 159.5Q460 206 460 269Q460 333 443.0 378.0Q426 423 391.5 447.5Q357 472 302 472Q220 472 183.0 418.0Q146 364 146 269Z" transform="matrix(0.03600000 0 0 -0.03600000 768.2160 240.0000)" fill="#111111"/>
</g></g>
</svg>
