<?xml version="1.0" encoding="UTF-8"?>
<svg xmlns="http://www.w3.org/2000/svg" width="1200" height="630" viewBox="0 0 1200 630" role="img" aria-labelledby="title desc">
  <title id="title">모두일보 소셜 공유 카드</title>
  <desc id="desc">모두일보 워드마크, 모두를 위한 신뢰의 뉴스 슬로건, modooilbo.com 도메인으로 구성한 무채색 공유 카드</desc>
  
<rect x="0" y="0" width="1200" height="630" fill="#ffffff"/>
<g transform="translate(114 112) scale(1.08)">
<g id="modoo-ilbo-wordmark">
  <path d="M935 54C929 64 841 80 811 80C791 80 762 58 715 58H536C540 88 545 130 545 146L547 273H754C758 287 763 326 761 328C758 331 738 343 728 349L742 383L768 635C770 658 757 685 736 687C727 688 685 693 660 693C651 693 628 679 591 679H313C287 679 209 684 185 684C180 684 167 659 158 637C167 630 201 599 202 578L219 331C222 285 232 255 247 230H286C295 239 309 264 311 273H433L434 130C434 111 437 82 440 58H273C203 58 68 68 48 68C38 68 31 32 30 22C80 -8 148 -34 168 -34C178 -34 243 -17 273 -17H930C938 -6 946 35 935 54ZM317 604H645L640 349H320Z" transform="matrix(0.13500000 0 0 -0.13500000 30.0000 170.0000)" fill="#111111"/>
<path d="M191 644C198 637 201 629 201 622L203 445C204 391 247 353 308 353L785 355C798 366 800 418 792 429C784 440 727 444 697 446C677 447 630 429 591 429H357C337 429 321 436 321 461V638H777C790 649 792 699 784 710C776 721 731 725 699 727C679 728 632 713 593 713H318C277 716 183 719 168 719C160 719 148 691 150 678C160 670 188 647 191 644ZM935 239C929 249 841 265 811 265C791 265 762 243 715 243H273C203 243 68 253 48 253C38 253 31 217 30 207C80 177 148 151 168 151C178 151 243 168 273 168H436V-44C436 -106 450 -168 460 -185H514C529 -166 549 -68 549 -18L551 168H930C938 179 946 220 935 239Z" transform="matrix(0.13500000 0 0 -0.13500000 160.9500 170.0000)" fill="#111111"/>
<path d="M731 266H786C801 287 824 363 825 447L827 675C827 696 830 725 830 735C830 746 827 751 816 756C780 772 694 790 663 790C654 790 645 766 640 751L697 701C704 694 712 686 712 673V415C712 345 721 285 731 266ZM325 295C466 295 561 383 561 500C561 617 466 705 325 705C184 705 89 617 89 500C89 383 184 295 325 295ZM325 376C251 376 197 426 197 500C197 574 251 624 325 624C399 624 453 574 453 500C453 426 399 376 325 376ZM402 -180H854C873 -168 873 -114 862 -104C851 -94 792 -86 772 -86C762 -86 697 -106 677 -106H448C435 -106 420 -101 420 -80V-10H779C803 -10 814 9 814 21C814 39 798 52 783 55L795 81C802 118 811 181 811 195C811 212 799 220 782 224C768 227 731 233 720 233C709 233 664 221 648 221H437C395 221 286 226 275 226C266 226 258 192 258 184C266 178 340 139 365 139C375 139 407 149 437 149H690C690 126 689 78 686 60H385C367 60 298 65 282 65C276 65 266 44 266 36L297 11C304 4 305 0 305 -7V-91C305 -143 339 -180 402 -180Z" transform="matrix(0.13500000 0 0 -0.13500000 291.9000 170.0000)" fill="#111111"/>
<path d="M935 44C929 54 841 70 811 70C791 70 762 48 715 48H546C551 74 555 106 556 120L558 230H742C765 249 768 273 768 309L771 641C771 651 773 672 773 678C773 687 766 690 753 695C724 705 666 714 633 716C627 716 611 689 608 678C617 672 639 656 647 649C652 644 654 640 654 632V525H329V611C329 621 331 642 331 648C331 657 326 660 311 665C283 674 216 679 193 679C187 679 175 655 171 644C180 637 197 627 205 620C210 615 212 611 212 603L216 306C217 264 227 220 248 193H296C305 201 314 220 318 230H443L444 108C444 92 446 69 449 48H273C203 48 68 58 48 58C38 58 31 22 30 12C80 -18 148 -44 168 -44C178 -44 243 -27 273 -27H930C938 -16 946 25 935 44ZM329 455H654V302H329Z" transform="matrix(0.13500000 0 0 -0.13500000 422.8500 170.0000)" fill="#111111"/>
  <path d="M552 189 L614 189 L650 153 L835 153 L835 163 L654 163 L618 199 L552 199 Z" fill="#111111"/>
  <rect x="734" y="136" width="18" height="22" fill="#111111"/>
  <rect x="766" y="116" width="18" height="42" fill="#111111"/>
  <rect x="798" y="88" width="18" height="70" fill="#111111"/>
  <path d="M673 546Q764 546 809.0 499.5Q854 453 854 349V0H767V345Q767 408 740.5 440.0Q714 472 658 472Q580 472 546.5 427.0Q513 382 513 296V0H426V345Q426 387 414.0 415.5Q402 444 378.0 458.0Q354 472 316 472Q262 472 231.0 449.5Q200 427 186.5 384.0Q173 341 173 278V0H85V536H156L169 463H174Q191 491 215.5 509.5Q240 528 270.0 537.0Q300 546 332 546Q394 546 435.5 524.0Q477 502 496 456H501Q528 502 574.5 524.0Q621 546 673 546Z" transform="matrix(0.03600000 0 0 -0.03600000 597.0000 240.0000)" fill="#111111"/>
<path d="M551 269Q551 202 533.5 150.5Q516 99 483.5 63.0Q451 27 404.5 8.5Q358 -10 301 -10Q248 -10 203.0 8.5Q158 27 125.0 63.0Q92 99 73.5 150.5Q55 202 55 269Q55 358 85.0 419.5Q115 481 171.0 513.5Q227 546 304 546Q377 546 432.5 513.5Q488 481 519.5 419.5Q551 358 551 269ZM146 269Q146 206 162.5 159.5Q179 113 214.0 88.0Q249 63 303 63Q357 63 392.0 88.0Q427 113 443.5 159.5Q460 206 460 269Q460 333 443.0 378.0Q426 423 391.5 447.5Q357 472 302 472Q220 472 183.0 418.0Q146 364 146 269Z" transform="matrix(0.03600000 0 0 -0.03600000 630.6600 240.0000)" fill="#111111"/>
<path d="M275 -10Q175 -10 115.0 59.5Q55 129 55 267Q55 405 115.5 475.5Q176 546 276 546Q318 546 349.0 535.5Q380 525 403.0 507.0Q426 489 442 467H448Q447 480 444.5 505.5Q442 531 442 546V760H530V0H459L446 72H442Q426 49 403.0 30.5Q380 12 348.5 1.0Q317 -10 275 -10ZM289 63Q374 63 408.5 109.5Q443 156 443 250V266Q443 366 410.0 419.5Q377 473 288 473Q217 473 181.5 416.5Q146 360 146 265Q146 169 181.5 116.0Q217 63 289 63Z" transform="matrix(0.03600000 0 0 -0.03600000 652.4400 240.0000)" fill="#111111"/>
<path d="M551 269Q551 202 533.5 150.5Q516 99 483.5 63.0Q451 27 404.5 8.5Q358 -10 301 -10Q248 -10 203.0 8.5Q158 27 125.0 63.0Q92 99 73.5 150.5Q55 202 55 269Q55 358 85.0 419.5Q115 481 171.0 513.5Q227 546 304 546Q377 546 432.5 513.5Q488 481 519.5 419.5Q551 358 551 269ZM146 269Q146 206 162.5 159.5Q179 113 214.0 88.0Q249 63 303 63Q357 63 392.0 88.0Q427 113 443.5 159.5Q460 206 460 269Q460 333 443.0 378.0Q426 423 391.5 447.5Q357 472 302 472Q220 472 183.0 418.0Q146 364 146 269Z" transform="matrix(0.03600000 0 0 -0.03600000 674.5800 240.0000)" fill="#111111"/>
<path d="M551 269Q551 202 533.5 150.5Q516 99 483.5 63.0Q451 27 404.5 8.5Q358 -10 301 -10Q248 -10 203.0 8.5Q158 27 125.0 63.0Q92 99 73.5 150.5Q55 202 55 269Q55 358 85.0 419.5Q115 481 171.0 513.5Q227 546 304 546Q377 546 432.5 513.5Q488 481 519.5 419.5Q551 358 551 269ZM146 269Q146 206 162.5 159.5Q179 113 214.0 88.0Q249 63 303 63Q357 63 392.0 88.0Q427 113 443.5 159.5Q460 206 460 269Q460 333 443.0 378.0Q426 423 391.5 447.5Q357 472 302 472Q220 472 183.0 418.0Q146 364 146 269Z" transform="matrix(0.03600000 0 0 -0.03600000 696.3600 240.0000)" fill="#111111"/>
<path d="M173 536V0H85V536ZM130 737Q150 737 165.5 723.5Q181 710 181 681Q181 653 165.5 639.0Q150 625 130 625Q108 625 93.0 639.0Q78 653 78 681Q78 710 93.0 723.5Q108 737 130 737Z" transform="matrix(0.03600000 0 0 -0.03600000 727.5000 240.0000)" fill="#111111"/>
<path d="M173 0H85V760H173Z" transform="matrix(0.03600000 0 0 -0.03600000 736.7880 240.0000)" fill="#111111"/>
<path d="M173 575Q173 541 171.5 511.5Q170 482 168 465H173Q196 499 236.0 522.0Q276 545 339 545Q439 545 499.5 475.5Q560 406 560 268Q560 176 532.5 114.0Q505 52 455.0 21.0Q405 -10 339 -10Q276 -10 236.0 13.0Q196 36 173 68H166L148 0H85V760H173ZM324 472Q267 472 234.0 450.5Q201 429 187.0 384.5Q173 340 173 271V267Q173 168 205.5 115.5Q238 63 326 63Q398 63 433.5 116.0Q469 169 469 269Q469 370 433.5 421.0Q398 472 324 472Z" transform="matrix(0.03600000 0 0 -0.03600000 746.0760 240.0000)" fill="#111111"/>
<path d="M551 269Q551 202 533.5 150.5Q516 99 483.5 63.0Q451 27 404.5 8.5Q358 -10 301 -10Q248 -10 203.0 8.5Q158 27 125.0 63.0Q92 99 73.5 150.5Q55 202 55 269Q55 358 85.0 419.5Q115 481 171.0 513.5Q227 546 304 546Q377 546 432.5 513.5Q488 481 519.5 419.5Q551 358 551 269ZM146 269Q146 206 162.5 159.5Q179 113 214.0 88.0Q249 63 303 63Q357 63 392.0 88.0Q427 113 443.5 159.5Q460 206 460 269Q460 333 443.0 378.0Q426 423 391.5 447.5Q357 472 302 472Q220 472 183.0 418.0Q146 364 146 269Z" transform="matrix(0.03600000 0 0 -0.03600000 768.2160 240.0000)" fill="#111111"/>
</g></g>
<path d="M932 49C926 60 866 71 836 71C816 71 774 52 732 52H525C529 82 533 129 533 147L535 276H753C756 288 761 321 757 323C749 326 733 334 722 339L729 364L756 639C758 656 746 676 731 677C721 678 688 682 668 682C659 682 641 672 614 672H308C282 672 217 677 193 677C188 677 176 650 171 635C180 628 214 607 215 591L230 329C233 283 239 258 251 238H285C294 247 304 265 307 276H442L443 130C443 109 445 76 447 52H259C174 52 69 62 49 62C39 62 33 36 32 21C67 1 139 -26 159 -26C169 -26 229 -10 259 -10H930C937 1 941 34 932 49ZM310 610H655L648 338H314Z" transform="matrix(0.04800000 0 0 -0.04800000 132.0000 476.0000)" fill="#111111"/>
<path d="M204 647C211 640 214 632 214 625L216 440C216 386 255 358 316 358L779 360C792 371 793 413 785 424C777 435 740 436 710 438C690 439 633 421 594 421H345C325 421 309 428 309 453V644H771C784 655 785 694 777 705C769 716 739 718 707 720C687 721 635 706 596 706H306C275 709 197 713 182 713C174 713 163 687 165 674C179 666 201 650 204 647ZM933 237C926 248 866 259 836 259C816 259 775 240 733 240H259C174 240 69 250 49 250C39 250 33 224 33 209C68 189 139 162 159 162C169 162 229 178 259 178H448V-63C448 -113 457 -165 467 -183H509C524 -163 539 -86 539 -36L540 178H930C938 189 942 222 933 237Z" transform="matrix(0.04800000 0 0 -0.04800000 178.5600 476.0000)" fill="#111111"/>
<path d="M303 400H779C792 417 794 452 780 461C770 468 728 473 695 473C680 473 635 459 595 459H347C323 459 310 472 310 492V544H725C744 544 753 555 753 570C753 583 747 591 735 595C740 624 755 687 758 709C759 721 753 734 738 737C717 741 676 745 663 745C654 745 623 736 601 736H357C305 736 232 740 200 742C190 743 181 718 180 702C209 688 264 664 282 664C299 664 326 676 357 676H656L654 598H311C271 598 214 603 198 603C189 603 182 579 179 566C189 561 217 548 217 527L218 473C219 437 244 400 303 400ZM259 267H930C938 278 942 308 933 323C926 333 866 344 836 344C816 344 775 326 733 326H259C174 326 69 336 49 336C39 336 33 312 33 298C68 278 139 251 159 251C169 251 229 267 259 267ZM327 -170H799C817 -158 817 -116 807 -106C797 -96 755 -92 730 -92C715 -92 660 -109 630 -109H351C338 -109 324 -104 324 -85V-14H732C756 -14 764 2 764 14C764 28 755 40 738 43C741 49 744 60 745 62C748 96 761 155 761 169C761 181 754 189 737 192C723 195 691 199 680 199C669 199 629 190 613 190H352C305 190 210 195 197 195C190 195 183 173 183 157C191 151 260 122 285 122C295 122 327 130 352 130H661C661 104 660 60 658 44H300C282 44 222 49 206 49C200 49 191 28 191 20L222 1C229 -4 230 -10 230 -17V-91C230 -143 264 -170 327 -170Z" transform="matrix(0.04800000 0 0 -0.04800000 225.1200 476.0000)" fill="#111111"/>
<path d="M814 754C788 765 712 785 687 785C678 785 667 766 664 749L719 705C726 699 733 692 733 679V285C593 253 354 237 221 235C197 234 164 235 149 235C109 237 61 244 54 244C46 244 38 224 38 205C62 189 124 158 141 158C160 158 199 168 241 170C271 172 306 174 344 177V37C344 -23 340 -105 334 -142L379 -150C409 -120 435 -49 435 40V186C540 196 652 211 733 229V-47C733 -102 742 -164 752 -183H788C803 -162 823 -84 823 -15L825 678C825 694 828 723 828 733C828 744 825 749 814 754ZM380 343C513 343 600 421 600 530C600 639 513 718 380 718C248 718 160 639 160 530C160 421 248 343 380 343ZM380 651C458 651 514 603 514 530C514 458 458 409 380 409C303 409 247 458 247 530C247 603 303 651 380 651Z" transform="matrix(0.04800000 0 0 -0.04800000 284.8800 476.0000)" fill="#111111"/>
<path d="M943 433C932 441 895 447 870 447C850 447 811 426 773 426H764L765 678C765 694 768 723 768 733C768 744 765 749 754 754C728 765 651 785 626 785C617 785 606 765 603 749L658 705C665 699 672 692 672 679V187C672 132 681 75 691 56H728C743 77 763 152 763 219L764 368H943C953 385 953 426 943 433ZM449 662C465 672 461 717 449 717L295 724C266 725 190 738 180 739C174 740 167 717 166 706C196 682 246 652 265 652C316 652 398 657 449 662ZM195 529H587C599 540 598 582 588 590C580 597 551 600 520 601C501 601 453 588 419 588H195C138 588 60 596 43 596C38 596 32 565 31 557C45 548 107 517 125 517C142 517 174 529 195 529ZM529 324C529 418 448 488 326 488C205 488 124 418 124 324C124 231 205 161 326 161C448 161 529 231 529 324ZM208 324C208 384 255 425 326 425C398 425 445 384 445 324C445 264 398 224 326 224C255 224 208 264 208 324ZM734 -75C714 -75 669 -94 629 -94H422C390 -94 379 -84 379 -61V42L380 73C380 89 365 94 349 96C329 98 286 101 258 101C249 101 240 77 240 66L277 44C282 41 284 38 284 28V-65C284 -120 320 -155 390 -155H815C828 -142 828 -101 819 -91C810 -81 764 -75 734 -75Z" transform="matrix(0.04800000 0 0 -0.04800000 331.4400 476.0000)" fill="#111111"/>
<path d="M712 679V202C712 147 721 89 731 70H768C783 91 803 167 803 234L805 678C805 694 808 723 808 733C808 744 805 749 794 754C768 765 691 785 666 785C657 785 646 765 643 749L698 705C705 699 712 692 712 679ZM560 224C573 227 616 251 606 268C595 287 570 322 546 343C525 363 480 386 451 409L376 471C403 517 426 564 440 605C449 630 451 639 450 647C450 653 444 660 434 665C425 670 338 700 316 700C309 700 302 679 297 671C308 661 326 646 333 638C339 633 338 628 332 609C296 490 158 267 45 215C36 211 68 185 74 181C159 197 266 304 345 422C421 359 496 285 560 224ZM849 -90C840 -80 794 -74 764 -74C744 -74 699 -93 659 -93H452C420 -93 409 -84 409 -60V82L410 113C410 129 395 134 379 136C359 138 316 141 288 141C279 141 270 117 270 106L307 84C312 81 314 78 314 68V-65C314 -120 350 -155 420 -155H845C858 -142 858 -100 849 -90Z" transform="matrix(0.04800000 0 0 -0.04800000 391.2000 476.0000)" fill="#111111"/>
<path d="M814 754C788 765 711 785 686 785C677 785 666 766 663 749L718 705C725 699 732 692 732 679V173C647 153 531 137 423 128C426 151 429 179 429 193L431 260H621C635 277 638 311 624 320C614 327 570 332 538 332C523 332 482 319 442 319H285C261 319 248 333 248 353V441H567C586 441 595 452 595 468C595 480 589 488 577 492C582 522 597 622 600 644C601 656 595 669 581 672C560 676 519 680 505 680C496 680 466 671 444 671H294C242 671 170 675 138 677C128 678 119 652 118 637C147 622 202 599 220 599C237 599 263 611 294 611H498L496 496H248C208 496 152 501 136 501C127 501 119 476 117 464C127 459 155 446 155 425L156 333C156 297 182 260 241 260H343L344 181C344 165 345 141 347 122C304 119 265 117 231 116C207 116 174 116 159 117C119 119 71 125 64 125C56 125 48 105 48 85C72 70 134 39 151 39C170 39 209 48 251 51C383 58 595 84 732 116V-47C732 -102 741 -164 751 -183H788C803 -162 823 -84 823 -15L825 678C825 694 828 723 828 733C828 744 825 749 814 754Z" transform="matrix(0.04800000 0 0 -0.04800000 437.7600 476.0000)" fill="#111111"/>
<path d="M814 754C788 765 711 785 686 785C677 785 666 766 663 749L718 705C725 699 732 692 732 679V194C591 160 359 139 226 136C202 136 169 136 154 137C114 139 66 145 59 145C51 145 43 125 43 105C67 90 129 59 146 59C165 59 204 68 246 71C380 78 595 105 732 137V-47C732 -102 741 -164 751 -183H788C803 -162 823 -84 823 -15L825 678C825 694 828 723 828 733C828 744 825 749 814 754ZM370 269C508 269 599 353 599 470C599 587 508 671 370 671C233 671 142 587 142 470C142 353 233 269 370 269ZM370 604C452 604 512 551 512 470C512 390 452 336 370 336C288 336 228 390 228 470C228 551 288 604 370 604Z" transform="matrix(0.04800000 0 0 -0.04800000 484.3200 476.0000)" fill="#111111"/>
<path d="M215 638V481C214 419 246 386 311 386L793 387C806 398 805 440 797 451C789 461 748 464 718 465C698 465 642 448 603 448H348C318 448 308 460 308 486V646L309 683C309 697 302 702 287 706C263 712 204 719 178 720C168 721 159 696 158 682C173 673 191 662 207 653C212 650 215 646 215 638ZM933 249C926 260 866 271 836 271C816 271 775 252 733 252H259C174 252 69 262 49 262C39 262 33 236 33 221C68 201 139 174 159 174C169 174 229 190 259 190H298V18C298 -45 289 -128 276 -165L320 -175C356 -145 390 -73 390 21V190H599V-57C599 -109 608 -162 618 -180H658C673 -160 688 -80 688 -28L690 190H930C938 201 942 234 933 249Z" transform="matrix(0.04800000 0 0 -0.04800000 544.0800 476.0000)" fill="#111111"/>
<path d="M107 251C213 262 352 354 469 490C589 421 708 355 828 286C841 291 872 321 861 338C849 357 800 397 772 414C751 425 685 446 660 459L509 540C526 563 543 586 558 610C578 642 583 665 557 678C543 684 459 711 437 711C430 711 420 694 415 685L447 652C455 644 459 638 446 617C347 462 170 308 78 291C70 290 94 257 107 251ZM933 50C926 60 866 71 836 71C816 71 775 53 733 53H259C174 53 69 63 49 63C39 63 33 37 33 22C68 2 139 -26 159 -26C169 -26 229 -10 259 -10H930C938 1 942 35 933 50Z" transform="matrix(0.04800000 0 0 -0.04800000 590.6400 476.0000)" fill="#111111"/>
<path d="M673 546Q764 546 809.0 499.5Q854 453 854 349V0H767V345Q767 408 740.5 440.0Q714 472 658 472Q580 472 546.5 427.0Q513 382 513 296V0H426V345Q426 387 414.0 415.5Q402 444 378.0 458.0Q354 472 316 472Q262 472 231.0 449.5Q200 427 186.5 384.0Q173 341 173 278V0H85V536H156L169 463H174Q191 491 215.5 509.5Q240 528 270.0 537.0Q300 546 332 546Q394 546 435.5 524.0Q477 502 496 456H501Q528 502 574.5 524.0Q621 546 673 546Z" transform="matrix(0.02800000 0 0 -0.02800000 132.0000 535.0000)" fill="#5a5a5a"/>
<path d="M551 269Q551 202 533.5 150.5Q516 99 483.5 63.0Q451 27 404.5 8.5Q358 -10 301 -10Q248 -10 203.0 8.5Q158 27 125.0 63.0Q92 99 73.5 150.5Q55 202 55 269Q55 358 85.0 419.5Q115 481 171.0 513.5Q227 546 304 546Q377 546 432.5 513.5Q488 481 519.5 419.5Q551 358 551 269ZM146 269Q146 206 162.5 159.5Q179 113 214.0 88.0Q249 63 303 63Q357 63 392.0 88.0Q427 113 443.5 159.5Q460 206 460 269Q460 333 443.0 378.0Q426 423 391.5 447.5Q357 472 302 472Q220 472 183.0 418.0Q146 364 146 269Z" transform="matrix(0.02800000 0 0 -0.02800000 158.1800 535.0000)" fill="#5a5a5a"/>
<path d="M275 -10Q175 -10 115.0 59.5Q55 129 55 267Q55 405 115.5 475.5Q176 546 276 546Q318 546 349.0 535.5Q380 525 403.0 507.0Q426 489 442 467H448Q447 480 444.5 505.5Q442 531 442 546V760H530V0H459L446 72H442Q426 49 403.0 30.5Q380 12 348.5 1.0Q317 -10 275 -10ZM289 63Q374 63 408.5 109.5Q443 156 443 250V266Q443 366 410.0 419.5Q377 473 288 473Q217 473 181.5 416.5Q146 360 146 265Q146 169 181.5 116.0Q217 63 289 63Z" transform="matrix(0.02800000 0 0 -0.02800000 175.1200 535.0000)" fill="#5a5a5a"/>
<path d="M551 269Q551 202 533.5 150.5Q516 99 483.5 63.0Q451 27 404.5 8.5Q358 -10 301 -10Q248 -10 203.0 8.5Q158 27 125.0 63.0Q92 99 73.5 150.5Q55 202 55 269Q55 358 85.0 419.5Q115 481 171.0 513.5Q227 546 304 546Q377 546 432.5 513.5Q488 481 519.5 419.5Q551 358 551 269ZM146 269Q146 206 162.5 159.5Q179 113 214.0 88.0Q249 63 303 63Q357 63 392.0 88.0Q427 113 443.5 159.5Q460 206 460 269Q460 333 443.0 378.0Q426 423 391.5 447.5Q357 472 302 472Q220 472 183.0 418.0Q146 364 146 269Z" transform="matrix(0.02800000 0 0 -0.02800000 192.3400 535.0000)" fill="#5a5a5a"/>
<path d="M551 269Q551 202 533.5 150.5Q516 99 483.5 63.0Q451 27 404.5 8.5Q358 -10 301 -10Q248 -10 203.0 8.5Q158 27 125.0 63.0Q92 99 73.5 150.5Q55 202 55 269Q55 358 85.0 419.5Q115 481 171.0 513.5Q227 546 304 546Q377 546 432.5 513.5Q488 481 519.5 419.5Q551 358 551 269ZM146 269Q146 206 162.5 159.5Q179 113 214.0 88.0Q249 63 303 63Q357 63 392.0 88.0Q427 113 443.5 159.5Q460 206 460 269Q460 333 443.0 378.0Q426 423 391.5 447.5Q357 472 302 472Q220 472 183.0 418.0Q146 364 146 269Z" transform="matrix(0.02800000 0 0 -0.02800000 209.2800 535.0000)" fill="#5a5a5a"/>
<path d="M173 536V0H85V536ZM130 737Q150 737 165.5 723.5Q181 710 181 681Q181 653 165.5 639.0Q150 625 130 625Q108 625 93.0 639.0Q78 653 78 681Q78 710 93.0 723.5Q108 737 130 737Z" transform="matrix(0.02800000 0 0 -0.02800000 226.2200 535.0000)" fill="#5a5a5a"/>
<path d="M173 0H85V760H173Z" transform="matrix(0.02800000 0 0 -0.02800000 233.4440 535.0000)" fill="#5a5a5a"/>
<path d="M173 575Q173 541 171.5 511.5Q170 482 168 465H173Q196 499 236.0 522.0Q276 545 339 545Q439 545 499.5 475.5Q560 406 560 268Q560 176 532.5 114.0Q505 52 455.0 21.0Q405 -10 339 -10Q276 -10 236.0 13.0Q196 36 173 68H166L148 0H85V760H173ZM324 472Q267 472 234.0 450.5Q201 429 187.0 384.5Q173 340 173 271V267Q173 168 205.5 115.5Q238 63 326 63Q398 63 433.5 116.0Q469 169 469 269Q469 370 433.5 421.0Q398 472 324 472Z" transform="matrix(0.02800000 0 0 -0.02800000 240.6680 535.0000)" fill="#5a5a5a"/>
<path d="M551 269Q551 202 533.5 150.5Q516 99 483.5 63.0Q451 27 404.5 8.5Q358 -10 301 -10Q248 -10 203.0 8.5Q158 27 125.0 63.0Q92 99 73.5 150.5Q55 202 55 269Q55 358 85.0 419.5Q115 481 171.0 513.5Q227 546 304 546Q377 546 432.5 513.5Q488 481 519.5 419.5Q551 358 551 269ZM146 269Q146 206 162.5 159.5Q179 113 214.0 88.0Q249 63 303 63Q357 63 392.0 88.0Q427 113 443.5 159.5Q460 206 460 269Q460 333 443.0 378.0Q426 423 391.5 447.5Q357 472 302 472Q220 472 183.0 418.0Q146 364 146 269Z" transform="matrix(0.02800000 0 0 -0.02800000 257.8880 535.0000)" fill="#5a5a5a"/>
<path d="M72 54Q72 91 90.0 106.0Q108 121 133 121Q159 121 177.5 106.0Q196 91 196 54Q196 18 177.5 2.0Q159 -14 133 -14Q108 -14 90.0 2.0Q72 18 72 54Z" transform="matrix(0.02800000 0 0 -0.02800000 274.8280 535.0000)" fill="#5a5a5a"/>
<path d="M300 -10Q229 -10 173.5 19.0Q118 48 86.5 109.0Q55 170 55 265Q55 364 88.0 426.0Q121 488 177.5 517.0Q234 546 306 546Q347 546 385.0 537.5Q423 529 447 517L420 444Q396 453 364.0 461.0Q332 469 304 469Q250 469 215.0 446.0Q180 423 163.0 378.0Q146 333 146 266Q146 202 163.0 157.0Q180 112 214.0 89.0Q248 66 299 66Q343 66 376.5 75.0Q410 84 438 97V19Q411 5 378.5 -2.5Q346 -10 300 -10Z" transform="matrix(0.02800000 0 0 -0.02800000 282.3320 535.0000)" fill="#5a5a5a"/>
<path d="M551 269Q551 202 533.5 150.5Q516 99 483.5 63.0Q451 27 404.5 8.5Q358 -10 301 -10Q248 -10 203.0 8.5Q158 27 125.0 63.0Q92 99 73.5 150.5Q55 202 55 269Q55 358 85.0 419.5Q115 481 171.0 513.5Q227 546 304 546Q377 546 432.5 513.5Q488 481 519.5 419.5Q551 358 551 269ZM146 269Q146 206 162.5 159.5Q179 113 214.0 88.0Q249 63 303 63Q357 63 392.0 88.0Q427 113 443.5 159.5Q460 206 460 269Q460 333 443.0 378.0Q426 423 391.5 447.5Q357 472 302 472Q220 472 183.0 418.0Q146 364 146 269Z" transform="matrix(0.02800000 0 0 -0.02800000 295.7720 535.0000)" fill="#5a5a5a"/>
<path d="M673 546Q764 546 809.0 499.5Q854 453 854 349V0H767V345Q767 408 740.5 440.0Q714 472 658 472Q580 472 546.5 427.0Q513 382 513 296V0H426V345Q426 387 414.0 415.5Q402 444 378.0 458.0Q354 472 316 472Q262 472 231.0 449.5Q200 427 186.5 384.0Q173 341 173 278V0H85V536H156L169 463H174Q191 491 215.5 509.5Q240 528 270.0 537.0Q300 546 332 546Q394 546 435.5 524.0Q477 502 496 456H501Q528 502 574.5 524.0Q621 546 673 546Z" transform="matrix(0.02800000 0 0 -0.02800000 312.7120 535.0000)" fill="#5a5a5a"/>
</svg>
